<mxfile host="app.diagrams.net" modified="2021-09-07T08:46:28.443Z" agent="5.0 (Windows NT 10.0; Win64; x64) AppleWebKit/537.36 (KHTML, like Gecko) Chrome/92.0.4515.159 Safari/537.36" etag="qXmKdot8twPDaUpDIq_g" version="15.1.0" type="github">
  <diagram id="C5RBs43oDa-KdzZeNtuy" name="Page-1">
    <mxGraphModel dx="3092" dy="1390" grid="1" gridSize="10" guides="1" tooltips="1" connect="1" arrows="1" fold="1" page="1" pageScale="1" pageWidth="827" pageHeight="1169" math="0" shadow="0">
      <root>
        <mxCell id="WIyWlLk6GJQsqaUBKTNV-0" />
        <mxCell id="WIyWlLk6GJQsqaUBKTNV-1" parent="WIyWlLk6GJQsqaUBKTNV-0" />
        <mxCell id="m38UlR-mXTsxk8naxuhB-155" value="" style="rounded=0;whiteSpace=wrap;html=1;align=left;fillColor=#f5f5f5;strokeColor=#666666;fontColor=#333333;" vertex="1" parent="WIyWlLk6GJQsqaUBKTNV-1">
          <mxGeometry x="-80" y="394" width="240" height="380" as="geometry" />
        </mxCell>
        <mxCell id="m38UlR-mXTsxk8naxuhB-131" value="" style="rounded=0;whiteSpace=wrap;html=1;fillColor=#e1d5e7;strokeColor=#9673a6;" vertex="1" parent="WIyWlLk6GJQsqaUBKTNV-1">
          <mxGeometry x="-10" y="774" width="720" height="290" as="geometry" />
        </mxCell>
        <mxCell id="m38UlR-mXTsxk8naxuhB-111" value="" style="rounded=0;whiteSpace=wrap;html=1;fillColor=#d5e8d4;strokeColor=#82b366;" vertex="1" parent="WIyWlLk6GJQsqaUBKTNV-1">
          <mxGeometry x="741" y="774" width="440" height="310" as="geometry" />
        </mxCell>
        <mxCell id="m38UlR-mXTsxk8naxuhB-89" value="" style="rounded=0;whiteSpace=wrap;html=1;fillColor=#f8cecc;strokeColor=#b85450;" vertex="1" parent="WIyWlLk6GJQsqaUBKTNV-1">
          <mxGeometry x="740" y="324" width="800" height="440" as="geometry" />
        </mxCell>
        <mxCell id="m38UlR-mXTsxk8naxuhB-61" value="" style="rounded=0;whiteSpace=wrap;html=1;fillColor=#fff2cc;strokeColor=#d6b656;" vertex="1" parent="WIyWlLk6GJQsqaUBKTNV-1">
          <mxGeometry x="740" y="50" width="560" height="260" as="geometry" />
        </mxCell>
        <mxCell id="zkfFHV4jXpPFQw0GAbJ--0" value="Zenject" style="swimlane;fontStyle=2;align=center;verticalAlign=top;childLayout=stackLayout;horizontal=1;startSize=30;horizontalStack=0;resizeParent=1;resizeLast=0;collapsible=1;marginBottom=0;rounded=0;shadow=0;strokeWidth=1;" parent="WIyWlLk6GJQsqaUBKTNV-1" vertex="1">
          <mxGeometry x="254" y="144" width="160" height="90" as="geometry">
            <mxRectangle x="230" y="140" width="160" height="26" as="alternateBounds" />
          </mxGeometry>
        </mxCell>
        <mxCell id="zkfFHV4jXpPFQw0GAbJ--4" value="" style="line;html=1;strokeWidth=1;align=left;verticalAlign=middle;spacingTop=-1;spacingLeft=3;spacingRight=3;rotatable=0;labelPosition=right;points=[];portConstraint=eastwest;" parent="zkfFHV4jXpPFQw0GAbJ--0" vertex="1">
          <mxGeometry y="30" width="160" height="8" as="geometry" />
        </mxCell>
        <mxCell id="m38UlR-mXTsxk8naxuhB-2" value="BootstrapInstaller" style="text;html=1;align=center;verticalAlign=middle;resizable=0;points=[];autosize=1;strokeColor=none;fillColor=none;" vertex="1" parent="zkfFHV4jXpPFQw0GAbJ--0">
          <mxGeometry y="38" width="160" height="20" as="geometry" />
        </mxCell>
        <mxCell id="m38UlR-mXTsxk8naxuhB-4" value="LocationInstaller" style="text;html=1;align=center;verticalAlign=middle;resizable=0;points=[];autosize=1;strokeColor=none;fillColor=none;" vertex="1" parent="zkfFHV4jXpPFQw0GAbJ--0">
          <mxGeometry y="58" width="160" height="20" as="geometry" />
        </mxCell>
        <mxCell id="zkfFHV4jXpPFQw0GAbJ--13" value="SaveLoadManager" style="swimlane;fontStyle=0;align=center;verticalAlign=top;childLayout=stackLayout;horizontal=1;startSize=26;horizontalStack=0;resizeParent=1;resizeLast=0;collapsible=1;marginBottom=0;rounded=0;shadow=0;strokeWidth=1;" parent="WIyWlLk6GJQsqaUBKTNV-1" vertex="1">
          <mxGeometry x="-150" y="280" width="310" height="100" as="geometry">
            <mxRectangle x="340" y="380" width="170" height="26" as="alternateBounds" />
          </mxGeometry>
        </mxCell>
        <mxCell id="zkfFHV4jXpPFQw0GAbJ--15" value="" style="line;html=1;strokeWidth=1;align=left;verticalAlign=middle;spacingTop=-1;spacingLeft=3;spacingRight=3;rotatable=0;labelPosition=right;points=[];portConstraint=eastwest;" parent="zkfFHV4jXpPFQw0GAbJ--13" vertex="1">
          <mxGeometry y="26" width="310" height="8" as="geometry" />
        </mxCell>
        <mxCell id="m38UlR-mXTsxk8naxuhB-63" value="static void SaveJsonDataToPlayerPrefs&amp;lt;T&amp;gt;(string, T)" style="text;html=1;align=center;verticalAlign=middle;resizable=0;points=[];autosize=1;strokeColor=none;fillColor=none;" vertex="1" parent="zkfFHV4jXpPFQw0GAbJ--13">
          <mxGeometry y="34" width="310" height="20" as="geometry" />
        </mxCell>
        <mxCell id="m38UlR-mXTsxk8naxuhB-64" value="&amp;nbsp;static T LoadJsonDataFromPlayerPrefs&amp;lt;T&amp;gt;(string, string)" style="text;html=1;align=center;verticalAlign=middle;resizable=0;points=[];autosize=1;strokeColor=none;fillColor=none;" vertex="1" parent="zkfFHV4jXpPFQw0GAbJ--13">
          <mxGeometry y="54" width="310" height="20" as="geometry" />
        </mxCell>
        <mxCell id="m38UlR-mXTsxk8naxuhB-65" value="static AudioClip[] LoadAllAudio()" style="text;html=1;align=center;verticalAlign=middle;resizable=0;points=[];autosize=1;strokeColor=none;fillColor=none;" vertex="1" parent="zkfFHV4jXpPFQw0GAbJ--13">
          <mxGeometry y="74" width="310" height="20" as="geometry" />
        </mxCell>
        <mxCell id="zkfFHV4jXpPFQw0GAbJ--17" value="GameManger" style="swimlane;fontStyle=0;align=center;verticalAlign=top;childLayout=stackLayout;horizontal=1;startSize=26;horizontalStack=0;resizeParent=1;resizeLast=0;collapsible=1;marginBottom=0;rounded=0;shadow=0;strokeWidth=1;" parent="WIyWlLk6GJQsqaUBKTNV-1" vertex="1">
          <mxGeometry x="167.5" y="280" width="225" height="70" as="geometry">
            <mxRectangle x="550" y="140" width="160" height="26" as="alternateBounds" />
          </mxGeometry>
        </mxCell>
        <mxCell id="zkfFHV4jXpPFQw0GAbJ--23" value="" style="line;html=1;strokeWidth=1;align=left;verticalAlign=middle;spacingTop=-1;spacingLeft=3;spacingRight=3;rotatable=0;labelPosition=right;points=[];portConstraint=eastwest;" parent="zkfFHV4jXpPFQw0GAbJ--17" vertex="1">
          <mxGeometry y="26" width="225" height="8" as="geometry" />
        </mxCell>
        <mxCell id="m38UlR-mXTsxk8naxuhB-19" value="Construct(Player, UIManager, ISpawner)" style="text;html=1;align=center;verticalAlign=middle;resizable=0;points=[];autosize=1;strokeColor=none;fillColor=none;" vertex="1" parent="zkfFHV4jXpPFQw0GAbJ--17">
          <mxGeometry y="34" width="225" height="20" as="geometry" />
        </mxCell>
        <mxCell id="m38UlR-mXTsxk8naxuhB-5" style="edgeStyle=orthogonalEdgeStyle;rounded=0;orthogonalLoop=1;jettySize=auto;html=1;" edge="1" parent="WIyWlLk6GJQsqaUBKTNV-1" source="m38UlR-mXTsxk8naxuhB-2" target="m38UlR-mXTsxk8naxuhB-6">
          <mxGeometry relative="1" as="geometry">
            <mxPoint x="494" y="192" as="targetPoint" />
          </mxGeometry>
        </mxCell>
        <mxCell id="m38UlR-mXTsxk8naxuhB-6" value="ScenesManger" style="text;html=1;strokeColor=none;fillColor=none;align=center;verticalAlign=middle;whiteSpace=wrap;rounded=0;" vertex="1" parent="WIyWlLk6GJQsqaUBKTNV-1">
          <mxGeometry x="466" y="182" width="96" height="20" as="geometry" />
        </mxCell>
        <mxCell id="m38UlR-mXTsxk8naxuhB-7" style="edgeStyle=orthogonalEdgeStyle;rounded=0;orthogonalLoop=1;jettySize=auto;html=1;entryX=0;entryY=0.75;entryDx=0;entryDy=0;" edge="1" parent="WIyWlLk6GJQsqaUBKTNV-1" source="m38UlR-mXTsxk8naxuhB-2" target="m38UlR-mXTsxk8naxuhB-9">
          <mxGeometry relative="1" as="geometry">
            <mxPoint x="454" y="214" as="targetPoint" />
          </mxGeometry>
        </mxCell>
        <mxCell id="m38UlR-mXTsxk8naxuhB-9" value="AudioManager" style="text;html=1;strokeColor=none;fillColor=none;align=center;verticalAlign=middle;whiteSpace=wrap;rounded=0;" vertex="1" parent="WIyWlLk6GJQsqaUBKTNV-1">
          <mxGeometry x="466" y="204" width="86" height="20" as="geometry" />
        </mxCell>
        <mxCell id="m38UlR-mXTsxk8naxuhB-10" value="DI" style="text;html=1;strokeColor=none;fillColor=none;align=center;verticalAlign=middle;whiteSpace=wrap;rounded=0;" vertex="1" parent="WIyWlLk6GJQsqaUBKTNV-1">
          <mxGeometry x="424" y="168" width="40" height="20" as="geometry" />
        </mxCell>
        <mxCell id="m38UlR-mXTsxk8naxuhB-11" style="edgeStyle=orthogonalEdgeStyle;rounded=0;orthogonalLoop=1;jettySize=auto;html=1;entryX=0;entryY=0.25;entryDx=0;entryDy=0;" edge="1" parent="WIyWlLk6GJQsqaUBKTNV-1" source="m38UlR-mXTsxk8naxuhB-4" target="m38UlR-mXTsxk8naxuhB-12">
          <mxGeometry relative="1" as="geometry">
            <mxPoint x="434" y="274" as="targetPoint" />
          </mxGeometry>
        </mxCell>
        <mxCell id="m38UlR-mXTsxk8naxuhB-12" value="EntitySettingsSD&lt;br&gt;Player" style="text;html=1;strokeColor=none;fillColor=none;align=left;verticalAlign=middle;whiteSpace=wrap;rounded=0;" vertex="1" parent="WIyWlLk6GJQsqaUBKTNV-1">
          <mxGeometry x="454" y="254" width="90" height="20" as="geometry" />
        </mxCell>
        <mxCell id="m38UlR-mXTsxk8naxuhB-13" style="edgeStyle=orthogonalEdgeStyle;rounded=0;orthogonalLoop=1;jettySize=auto;html=1;entryX=0;entryY=0.25;entryDx=0;entryDy=0;" edge="1" parent="WIyWlLk6GJQsqaUBKTNV-1" source="m38UlR-mXTsxk8naxuhB-4" target="m38UlR-mXTsxk8naxuhB-14">
          <mxGeometry relative="1" as="geometry">
            <mxPoint x="434" y="314" as="targetPoint" />
          </mxGeometry>
        </mxCell>
        <mxCell id="m38UlR-mXTsxk8naxuhB-14" value="BaseObstacle&lt;br&gt;BaseSpawner&lt;br&gt;" style="text;html=1;strokeColor=none;fillColor=none;align=left;verticalAlign=middle;whiteSpace=wrap;rounded=0;" vertex="1" parent="WIyWlLk6GJQsqaUBKTNV-1">
          <mxGeometry x="454" y="294" width="90" height="20" as="geometry" />
        </mxCell>
        <mxCell id="m38UlR-mXTsxk8naxuhB-16" value="DI" style="text;html=1;strokeColor=none;fillColor=none;align=center;verticalAlign=middle;whiteSpace=wrap;rounded=0;" vertex="1" parent="WIyWlLk6GJQsqaUBKTNV-1">
          <mxGeometry x="434" y="224" width="40" height="20" as="geometry" />
        </mxCell>
        <mxCell id="m38UlR-mXTsxk8naxuhB-17" style="edgeStyle=orthogonalEdgeStyle;rounded=0;orthogonalLoop=1;jettySize=auto;html=1;entryX=0;entryY=0.25;entryDx=0;entryDy=0;" edge="1" parent="WIyWlLk6GJQsqaUBKTNV-1" source="m38UlR-mXTsxk8naxuhB-4" target="m38UlR-mXTsxk8naxuhB-18">
          <mxGeometry relative="1" as="geometry">
            <mxPoint x="434" y="354" as="targetPoint" />
          </mxGeometry>
        </mxCell>
        <mxCell id="m38UlR-mXTsxk8naxuhB-18" value="SceneDependencies..." style="text;html=1;strokeColor=none;fillColor=none;align=center;verticalAlign=middle;whiteSpace=wrap;rounded=0;" vertex="1" parent="WIyWlLk6GJQsqaUBKTNV-1">
          <mxGeometry x="454" y="324" width="120" height="20" as="geometry" />
        </mxCell>
        <mxCell id="m38UlR-mXTsxk8naxuhB-21" value="UIManager" style="swimlane;fontStyle=0;align=center;verticalAlign=top;childLayout=stackLayout;horizontal=1;startSize=26;horizontalStack=0;resizeParent=1;resizeLast=0;collapsible=1;marginBottom=0;rounded=0;shadow=0;strokeWidth=1;" vertex="1" parent="WIyWlLk6GJQsqaUBKTNV-1">
          <mxGeometry x="167.5" y="375" width="270" height="130" as="geometry">
            <mxRectangle x="340" y="380" width="170" height="26" as="alternateBounds" />
          </mxGeometry>
        </mxCell>
        <mxCell id="m38UlR-mXTsxk8naxuhB-22" value="" style="line;html=1;strokeWidth=1;align=left;verticalAlign=middle;spacingTop=-1;spacingLeft=3;spacingRight=3;rotatable=0;labelPosition=right;points=[];portConstraint=eastwest;" vertex="1" parent="m38UlR-mXTsxk8naxuhB-21">
          <mxGeometry y="26" width="270" height="8" as="geometry" />
        </mxCell>
        <mxCell id="m38UlR-mXTsxk8naxuhB-163" value="void Construct(ScenesManager, AudioManager )" style="text;html=1;strokeColor=none;fillColor=none;align=center;verticalAlign=middle;whiteSpace=wrap;rounded=0;" vertex="1" parent="m38UlR-mXTsxk8naxuhB-21">
          <mxGeometry y="34" width="270" height="20" as="geometry" />
        </mxCell>
        <mxCell id="m38UlR-mXTsxk8naxuhB-59" value="&lt;div style=&quot;text-align: left&quot;&gt;&lt;span&gt;onPlay,&amp;nbsp;onPause&lt;/span&gt;&lt;/div&gt;onWindowPauseClosed" style="text;html=1;align=center;verticalAlign=middle;resizable=0;points=[];autosize=1;" vertex="1" parent="m38UlR-mXTsxk8naxuhB-21">
          <mxGeometry y="54" width="270" height="30" as="geometry" />
        </mxCell>
        <mxCell id="m38UlR-mXTsxk8naxuhB-60" value="void SetScore(string)" style="text;html=1;align=center;verticalAlign=middle;resizable=0;points=[];autosize=1;" vertex="1" parent="m38UlR-mXTsxk8naxuhB-21">
          <mxGeometry y="84" width="270" height="20" as="geometry" />
        </mxCell>
        <mxCell id="m38UlR-mXTsxk8naxuhB-162" value="void ShowGameOver()" style="text;html=1;strokeColor=none;fillColor=none;align=center;verticalAlign=middle;whiteSpace=wrap;rounded=0;" vertex="1" parent="m38UlR-mXTsxk8naxuhB-21">
          <mxGeometry y="104" width="270" height="20" as="geometry" />
        </mxCell>
        <mxCell id="m38UlR-mXTsxk8naxuhB-54" style="edgeStyle=orthogonalEdgeStyle;rounded=0;orthogonalLoop=1;jettySize=auto;html=1;" edge="1" parent="WIyWlLk6GJQsqaUBKTNV-1" source="m38UlR-mXTsxk8naxuhB-26" target="m38UlR-mXTsxk8naxuhB-34">
          <mxGeometry relative="1" as="geometry" />
        </mxCell>
        <mxCell id="m38UlR-mXTsxk8naxuhB-55" style="edgeStyle=orthogonalEdgeStyle;rounded=0;orthogonalLoop=1;jettySize=auto;html=1;" edge="1" parent="WIyWlLk6GJQsqaUBKTNV-1" source="m38UlR-mXTsxk8naxuhB-26" target="m38UlR-mXTsxk8naxuhB-39">
          <mxGeometry relative="1" as="geometry" />
        </mxCell>
        <mxCell id="m38UlR-mXTsxk8naxuhB-56" style="edgeStyle=orthogonalEdgeStyle;rounded=0;orthogonalLoop=1;jettySize=auto;html=1;" edge="1" parent="WIyWlLk6GJQsqaUBKTNV-1" source="m38UlR-mXTsxk8naxuhB-26" target="m38UlR-mXTsxk8naxuhB-37">
          <mxGeometry relative="1" as="geometry" />
        </mxCell>
        <mxCell id="m38UlR-mXTsxk8naxuhB-57" style="edgeStyle=orthogonalEdgeStyle;rounded=0;orthogonalLoop=1;jettySize=auto;html=1;entryX=0.5;entryY=0;entryDx=0;entryDy=0;" edge="1" parent="WIyWlLk6GJQsqaUBKTNV-1" source="m38UlR-mXTsxk8naxuhB-26" target="m38UlR-mXTsxk8naxuhB-31">
          <mxGeometry relative="1" as="geometry" />
        </mxCell>
        <mxCell id="m38UlR-mXTsxk8naxuhB-58" style="edgeStyle=orthogonalEdgeStyle;rounded=0;orthogonalLoop=1;jettySize=auto;html=1;entryX=0.5;entryY=0;entryDx=0;entryDy=0;" edge="1" parent="WIyWlLk6GJQsqaUBKTNV-1" source="m38UlR-mXTsxk8naxuhB-26" target="m38UlR-mXTsxk8naxuhB-41">
          <mxGeometry relative="1" as="geometry" />
        </mxCell>
        <mxCell id="m38UlR-mXTsxk8naxuhB-26" value="Window" style="swimlane;fontStyle=0;align=center;verticalAlign=top;childLayout=stackLayout;horizontal=1;startSize=26;horizontalStack=0;resizeParent=1;resizeLast=0;collapsible=1;marginBottom=0;rounded=0;shadow=0;strokeWidth=1;" vertex="1" parent="WIyWlLk6GJQsqaUBKTNV-1">
          <mxGeometry x="935" y="70" width="160" height="74" as="geometry">
            <mxRectangle x="340" y="380" width="170" height="26" as="alternateBounds" />
          </mxGeometry>
        </mxCell>
        <mxCell id="m38UlR-mXTsxk8naxuhB-27" value="" style="line;html=1;strokeWidth=1;align=left;verticalAlign=middle;spacingTop=-1;spacingLeft=3;spacingRight=3;rotatable=0;labelPosition=right;points=[];portConstraint=eastwest;" vertex="1" parent="m38UlR-mXTsxk8naxuhB-26">
          <mxGeometry y="26" width="160" height="8" as="geometry" />
        </mxCell>
        <mxCell id="m38UlR-mXTsxk8naxuhB-29" value="Open" style="text;html=1;align=center;verticalAlign=middle;resizable=0;points=[];autosize=1;" vertex="1" parent="m38UlR-mXTsxk8naxuhB-26">
          <mxGeometry y="34" width="160" height="20" as="geometry" />
        </mxCell>
        <mxCell id="m38UlR-mXTsxk8naxuhB-30" value="Close" style="text;html=1;align=center;verticalAlign=middle;resizable=0;points=[];autosize=1;" vertex="1" parent="m38UlR-mXTsxk8naxuhB-26">
          <mxGeometry y="54" width="160" height="20" as="geometry" />
        </mxCell>
        <mxCell id="m38UlR-mXTsxk8naxuhB-31" value="WindowGame&#xa;" style="swimlane;fontStyle=0;align=center;verticalAlign=top;childLayout=stackLayout;horizontal=1;startSize=26;horizontalStack=0;resizeParent=1;resizeLast=0;collapsible=1;marginBottom=0;rounded=0;shadow=0;strokeWidth=1;" vertex="1" parent="WIyWlLk6GJQsqaUBKTNV-1">
          <mxGeometry x="835" y="230" width="125" height="74" as="geometry">
            <mxRectangle x="340" y="380" width="170" height="26" as="alternateBounds" />
          </mxGeometry>
        </mxCell>
        <mxCell id="m38UlR-mXTsxk8naxuhB-32" value="" style="line;html=1;strokeWidth=1;align=left;verticalAlign=middle;spacingTop=-1;spacingLeft=3;spacingRight=3;rotatable=0;labelPosition=right;points=[];portConstraint=eastwest;" vertex="1" parent="m38UlR-mXTsxk8naxuhB-31">
          <mxGeometry y="26" width="125" height="8" as="geometry" />
        </mxCell>
        <mxCell id="m38UlR-mXTsxk8naxuhB-51" value="OnPause" style="text;html=1;align=center;verticalAlign=middle;resizable=0;points=[];autosize=1;" vertex="1" parent="m38UlR-mXTsxk8naxuhB-31">
          <mxGeometry y="34" width="125" height="20" as="geometry" />
        </mxCell>
        <mxCell id="m38UlR-mXTsxk8naxuhB-52" value="WindowPause field" style="text;html=1;align=center;verticalAlign=middle;resizable=0;points=[];autosize=1;" vertex="1" parent="m38UlR-mXTsxk8naxuhB-31">
          <mxGeometry y="54" width="125" height="20" as="geometry" />
        </mxCell>
        <mxCell id="m38UlR-mXTsxk8naxuhB-34" value="WindowGameOver&#xa;" style="swimlane;fontStyle=0;align=center;verticalAlign=top;childLayout=stackLayout;horizontal=1;startSize=26;horizontalStack=0;resizeParent=1;resizeLast=0;collapsible=1;marginBottom=0;rounded=0;shadow=0;strokeWidth=1;" vertex="1" parent="WIyWlLk6GJQsqaUBKTNV-1">
          <mxGeometry x="1070" y="230" width="115" height="74" as="geometry">
            <mxRectangle x="340" y="380" width="170" height="26" as="alternateBounds" />
          </mxGeometry>
        </mxCell>
        <mxCell id="m38UlR-mXTsxk8naxuhB-35" value="" style="line;html=1;strokeWidth=1;align=left;verticalAlign=middle;spacingTop=-1;spacingLeft=3;spacingRight=3;rotatable=0;labelPosition=right;points=[];portConstraint=eastwest;" vertex="1" parent="m38UlR-mXTsxk8naxuhB-34">
          <mxGeometry y="26" width="115" height="8" as="geometry" />
        </mxCell>
        <mxCell id="m38UlR-mXTsxk8naxuhB-50" value="OnOk" style="text;html=1;align=center;verticalAlign=middle;resizable=0;points=[];autosize=1;" vertex="1" parent="m38UlR-mXTsxk8naxuhB-34">
          <mxGeometry y="34" width="115" height="20" as="geometry" />
        </mxCell>
        <mxCell id="m38UlR-mXTsxk8naxuhB-53" value="WindowScore field" style="text;html=1;align=center;verticalAlign=middle;resizable=0;points=[];autosize=1;" vertex="1" parent="m38UlR-mXTsxk8naxuhB-34">
          <mxGeometry y="54" width="115" height="20" as="geometry" />
        </mxCell>
        <mxCell id="m38UlR-mXTsxk8naxuhB-37" value="WindowPause" style="swimlane;fontStyle=0;align=center;verticalAlign=top;childLayout=stackLayout;horizontal=1;startSize=26;horizontalStack=0;resizeParent=1;resizeLast=0;collapsible=1;marginBottom=0;rounded=0;shadow=0;strokeWidth=1;" vertex="1" parent="WIyWlLk6GJQsqaUBKTNV-1">
          <mxGeometry x="960" y="230" width="110" height="70" as="geometry">
            <mxRectangle x="340" y="380" width="170" height="26" as="alternateBounds" />
          </mxGeometry>
        </mxCell>
        <mxCell id="m38UlR-mXTsxk8naxuhB-38" value="" style="line;html=1;strokeWidth=1;align=left;verticalAlign=middle;spacingTop=-1;spacingLeft=3;spacingRight=3;rotatable=0;labelPosition=right;points=[];portConstraint=eastwest;" vertex="1" parent="m38UlR-mXTsxk8naxuhB-37">
          <mxGeometry y="26" width="110" height="8" as="geometry" />
        </mxCell>
        <mxCell id="m38UlR-mXTsxk8naxuhB-49" value="OnOk, OnMenu" style="text;html=1;align=center;verticalAlign=middle;resizable=0;points=[];autosize=1;" vertex="1" parent="m38UlR-mXTsxk8naxuhB-37">
          <mxGeometry y="34" width="110" height="20" as="geometry" />
        </mxCell>
        <mxCell id="m38UlR-mXTsxk8naxuhB-39" value="WindowScore" style="swimlane;fontStyle=0;align=center;verticalAlign=top;childLayout=stackLayout;horizontal=1;startSize=26;horizontalStack=0;resizeParent=1;resizeLast=0;collapsible=1;marginBottom=0;rounded=0;shadow=0;strokeWidth=1;" vertex="1" parent="WIyWlLk6GJQsqaUBKTNV-1">
          <mxGeometry x="1185" y="230" width="110" height="70" as="geometry">
            <mxRectangle x="340" y="380" width="170" height="26" as="alternateBounds" />
          </mxGeometry>
        </mxCell>
        <mxCell id="m38UlR-mXTsxk8naxuhB-40" value="" style="line;html=1;strokeWidth=1;align=left;verticalAlign=middle;spacingTop=-1;spacingLeft=3;spacingRight=3;rotatable=0;labelPosition=right;points=[];portConstraint=eastwest;" vertex="1" parent="m38UlR-mXTsxk8naxuhB-39">
          <mxGeometry y="26" width="110" height="8" as="geometry" />
        </mxCell>
        <mxCell id="m38UlR-mXTsxk8naxuhB-41" value="WindowStart" style="swimlane;fontStyle=0;align=center;verticalAlign=top;childLayout=stackLayout;horizontal=1;startSize=26;horizontalStack=0;resizeParent=1;resizeLast=0;collapsible=1;marginBottom=0;rounded=0;shadow=0;strokeWidth=1;" vertex="1" parent="WIyWlLk6GJQsqaUBKTNV-1">
          <mxGeometry x="740" y="230" width="95" height="70" as="geometry">
            <mxRectangle x="340" y="380" width="170" height="26" as="alternateBounds" />
          </mxGeometry>
        </mxCell>
        <mxCell id="m38UlR-mXTsxk8naxuhB-42" value="" style="line;html=1;strokeWidth=1;align=left;verticalAlign=middle;spacingTop=-1;spacingLeft=3;spacingRight=3;rotatable=0;labelPosition=right;points=[];portConstraint=eastwest;" vertex="1" parent="m38UlR-mXTsxk8naxuhB-41">
          <mxGeometry y="26" width="95" height="8" as="geometry" />
        </mxCell>
        <mxCell id="m38UlR-mXTsxk8naxuhB-48" value="OnStart" style="text;html=1;align=center;verticalAlign=middle;resizable=0;points=[];autosize=1;" vertex="1" parent="m38UlR-mXTsxk8naxuhB-41">
          <mxGeometry y="34" width="95" height="20" as="geometry" />
        </mxCell>
        <mxCell id="m38UlR-mXTsxk8naxuhB-62" value="UI" style="text;html=1;strokeColor=none;fillColor=none;align=center;verticalAlign=middle;whiteSpace=wrap;rounded=0;" vertex="1" parent="WIyWlLk6GJQsqaUBKTNV-1">
          <mxGeometry x="760" y="60" width="40" height="20" as="geometry" />
        </mxCell>
        <mxCell id="m38UlR-mXTsxk8naxuhB-70" style="edgeStyle=orthogonalEdgeStyle;rounded=0;orthogonalLoop=1;jettySize=auto;html=1;" edge="1" parent="WIyWlLk6GJQsqaUBKTNV-1" source="m38UlR-mXTsxk8naxuhB-66" target="m38UlR-mXTsxk8naxuhB-68">
          <mxGeometry relative="1" as="geometry" />
        </mxCell>
        <mxCell id="m38UlR-mXTsxk8naxuhB-66" value="IEntity" style="swimlane;fontStyle=0;align=center;verticalAlign=top;childLayout=stackLayout;horizontal=1;startSize=26;horizontalStack=0;resizeParent=1;resizeLast=0;collapsible=1;marginBottom=0;rounded=0;shadow=0;strokeWidth=1;" vertex="1" parent="WIyWlLk6GJQsqaUBKTNV-1">
          <mxGeometry x="787.5" y="354" width="168" height="120" as="geometry">
            <mxRectangle x="340" y="380" width="170" height="26" as="alternateBounds" />
          </mxGeometry>
        </mxCell>
        <mxCell id="m38UlR-mXTsxk8naxuhB-67" value="" style="line;html=1;strokeWidth=1;align=left;verticalAlign=middle;spacingTop=-1;spacingLeft=3;spacingRight=3;rotatable=0;labelPosition=right;points=[];portConstraint=eastwest;" vertex="1" parent="m38UlR-mXTsxk8naxuhB-66">
          <mxGeometry y="26" width="168" height="8" as="geometry" />
        </mxCell>
        <mxCell id="m38UlR-mXTsxk8naxuhB-74" value="IEntityInput Input { get; }&lt;br&gt;&lt;div&gt;&amp;nbsp; &amp;nbsp; bool IsDead { get; }&lt;/div&gt;&lt;div&gt;&amp;nbsp; &amp;nbsp; void Go();&lt;/div&gt;&lt;div&gt;&amp;nbsp; &amp;nbsp; void Die();&lt;/div&gt;&lt;div&gt;&amp;nbsp; &amp;nbsp; void AddScore(int);&lt;/div&gt;" style="text;html=1;align=center;verticalAlign=middle;resizable=0;points=[];autosize=1;strokeColor=none;fillColor=none;" vertex="1" parent="m38UlR-mXTsxk8naxuhB-66">
          <mxGeometry y="34" width="168" height="80" as="geometry" />
        </mxCell>
        <mxCell id="m38UlR-mXTsxk8naxuhB-73" style="edgeStyle=orthogonalEdgeStyle;rounded=0;orthogonalLoop=1;jettySize=auto;html=1;" edge="1" parent="WIyWlLk6GJQsqaUBKTNV-1" source="m38UlR-mXTsxk8naxuhB-68" target="m38UlR-mXTsxk8naxuhB-71">
          <mxGeometry relative="1" as="geometry" />
        </mxCell>
        <mxCell id="m38UlR-mXTsxk8naxuhB-68" value="Player" style="swimlane;fontStyle=0;align=center;verticalAlign=top;childLayout=stackLayout;horizontal=1;startSize=26;horizontalStack=0;resizeParent=1;resizeLast=0;collapsible=1;marginBottom=0;rounded=0;shadow=0;strokeWidth=1;" vertex="1" parent="WIyWlLk6GJQsqaUBKTNV-1">
          <mxGeometry x="741" y="504" width="261" height="100" as="geometry">
            <mxRectangle x="340" y="380" width="170" height="26" as="alternateBounds" />
          </mxGeometry>
        </mxCell>
        <mxCell id="m38UlR-mXTsxk8naxuhB-69" value="" style="line;html=1;strokeWidth=1;align=left;verticalAlign=middle;spacingTop=-1;spacingLeft=3;spacingRight=3;rotatable=0;labelPosition=right;points=[];portConstraint=eastwest;" vertex="1" parent="m38UlR-mXTsxk8naxuhB-68">
          <mxGeometry y="26" width="261" height="8" as="geometry" />
        </mxCell>
        <mxCell id="m38UlR-mXTsxk8naxuhB-86" value="void Construct(EntitySettingsSD)" style="text;html=1;align=center;verticalAlign=middle;resizable=0;points=[];autosize=1;strokeColor=none;fillColor=none;" vertex="1" parent="m38UlR-mXTsxk8naxuhB-68">
          <mxGeometry y="34" width="261" height="20" as="geometry" />
        </mxCell>
        <mxCell id="m38UlR-mXTsxk8naxuhB-87" value="virtual void OnTriggerEnter2D(Collider2D)" style="text;html=1;align=center;verticalAlign=middle;resizable=0;points=[];autosize=1;strokeColor=none;fillColor=none;" vertex="1" parent="m38UlR-mXTsxk8naxuhB-68">
          <mxGeometry y="54" width="261" height="20" as="geometry" />
        </mxCell>
        <mxCell id="m38UlR-mXTsxk8naxuhB-88" value="virtual void OnCollisionEnter2D(Collision2D)" style="text;html=1;align=center;verticalAlign=middle;resizable=0;points=[];autosize=1;strokeColor=none;fillColor=none;" vertex="1" parent="m38UlR-mXTsxk8naxuhB-68">
          <mxGeometry y="74" width="261" height="20" as="geometry" />
        </mxCell>
        <mxCell id="m38UlR-mXTsxk8naxuhB-71" value="Bird" style="swimlane;fontStyle=0;align=center;verticalAlign=top;childLayout=stackLayout;horizontal=1;startSize=26;horizontalStack=0;resizeParent=1;resizeLast=0;collapsible=1;marginBottom=0;rounded=0;shadow=0;strokeWidth=1;" vertex="1" parent="WIyWlLk6GJQsqaUBKTNV-1">
          <mxGeometry x="791.5" y="636" width="160" height="70" as="geometry">
            <mxRectangle x="340" y="380" width="170" height="26" as="alternateBounds" />
          </mxGeometry>
        </mxCell>
        <mxCell id="m38UlR-mXTsxk8naxuhB-72" value="" style="line;html=1;strokeWidth=1;align=left;verticalAlign=middle;spacingTop=-1;spacingLeft=3;spacingRight=3;rotatable=0;labelPosition=right;points=[];portConstraint=eastwest;" vertex="1" parent="m38UlR-mXTsxk8naxuhB-71">
          <mxGeometry y="26" width="160" height="8" as="geometry" />
        </mxCell>
        <mxCell id="m38UlR-mXTsxk8naxuhB-80" style="edgeStyle=orthogonalEdgeStyle;rounded=0;orthogonalLoop=1;jettySize=auto;html=1;" edge="1" parent="WIyWlLk6GJQsqaUBKTNV-1" source="m38UlR-mXTsxk8naxuhB-75" target="m38UlR-mXTsxk8naxuhB-78">
          <mxGeometry relative="1" as="geometry" />
        </mxCell>
        <mxCell id="m38UlR-mXTsxk8naxuhB-75" value="IEntityInput" style="swimlane;fontStyle=0;align=center;verticalAlign=top;childLayout=stackLayout;horizontal=1;startSize=26;horizontalStack=0;resizeParent=1;resizeLast=0;collapsible=1;marginBottom=0;rounded=0;shadow=0;strokeWidth=1;" vertex="1" parent="WIyWlLk6GJQsqaUBKTNV-1">
          <mxGeometry x="1017.5" y="417.5" width="183" height="156.5" as="geometry">
            <mxRectangle x="340" y="380" width="170" height="26" as="alternateBounds" />
          </mxGeometry>
        </mxCell>
        <mxCell id="m38UlR-mXTsxk8naxuhB-76" value="" style="line;html=1;strokeWidth=1;align=left;verticalAlign=middle;spacingTop=-1;spacingLeft=3;spacingRight=3;rotatable=0;labelPosition=right;points=[];portConstraint=eastwest;" vertex="1" parent="m38UlR-mXTsxk8naxuhB-75">
          <mxGeometry y="26" width="183" height="8" as="geometry" />
        </mxCell>
        <mxCell id="m38UlR-mXTsxk8naxuhB-77" value="&lt;div&gt;&amp;nbsp; &amp;nbsp; bool IsCanControl { get; set; }&lt;/div&gt;&lt;div&gt;&amp;nbsp; &amp;nbsp; bool IsCanRotate { get; set; }&lt;/div&gt;&lt;div&gt;&amp;nbsp; &amp;nbsp; bool IsKinematic { get; set; }&lt;/div&gt;&lt;div&gt;&amp;nbsp; &amp;nbsp; void ReadInput();&lt;/div&gt;&lt;div&gt;&amp;nbsp; &amp;nbsp; void UnControl();&lt;/div&gt;&lt;div&gt;&amp;nbsp; &amp;nbsp; void Block();&lt;/div&gt;&lt;div&gt;&amp;nbsp; &amp;nbsp; void Freeze();&lt;/div&gt;&lt;div&gt;&amp;nbsp; &amp;nbsp; void UnBlockUnFreeze();&lt;/div&gt;" style="text;html=1;align=center;verticalAlign=middle;resizable=0;points=[];autosize=1;strokeColor=none;fillColor=none;" vertex="1" parent="m38UlR-mXTsxk8naxuhB-75">
          <mxGeometry y="34" width="183" height="120" as="geometry" />
        </mxCell>
        <mxCell id="m38UlR-mXTsxk8naxuhB-78" value="PlayerInput" style="swimlane;fontStyle=0;align=center;verticalAlign=top;childLayout=stackLayout;horizontal=1;startSize=26;horizontalStack=0;resizeParent=1;resizeLast=0;collapsible=1;marginBottom=0;rounded=0;shadow=0;strokeWidth=1;" vertex="1" parent="WIyWlLk6GJQsqaUBKTNV-1">
          <mxGeometry x="1002" y="614" width="350.5" height="70" as="geometry">
            <mxRectangle x="340" y="380" width="170" height="26" as="alternateBounds" />
          </mxGeometry>
        </mxCell>
        <mxCell id="m38UlR-mXTsxk8naxuhB-79" value="" style="line;html=1;strokeWidth=1;align=left;verticalAlign=middle;spacingTop=-1;spacingLeft=3;spacingRight=3;rotatable=0;labelPosition=right;points=[];portConstraint=eastwest;" vertex="1" parent="m38UlR-mXTsxk8naxuhB-78">
          <mxGeometry y="26" width="350.5" height="8" as="geometry" />
        </mxCell>
        <mxCell id="m38UlR-mXTsxk8naxuhB-81" value="PlayerInput(Transform, Rigidbody2D, Animator, EntitySettingsSD)" style="text;html=1;align=center;verticalAlign=middle;resizable=0;points=[];autosize=1;strokeColor=none;fillColor=none;" vertex="1" parent="m38UlR-mXTsxk8naxuhB-78">
          <mxGeometry y="34" width="350.5" height="20" as="geometry" />
        </mxCell>
        <mxCell id="m38UlR-mXTsxk8naxuhB-82" value="EntitySettingsSD" style="swimlane;fontStyle=0;align=center;verticalAlign=top;childLayout=stackLayout;horizontal=1;startSize=26;horizontalStack=0;resizeParent=1;resizeLast=0;collapsible=1;marginBottom=0;rounded=0;shadow=0;strokeWidth=1;" vertex="1" parent="WIyWlLk6GJQsqaUBKTNV-1">
          <mxGeometry x="1360" y="614" width="175" height="114" as="geometry">
            <mxRectangle x="340" y="380" width="170" height="26" as="alternateBounds" />
          </mxGeometry>
        </mxCell>
        <mxCell id="m38UlR-mXTsxk8naxuhB-83" value="" style="line;html=1;strokeWidth=1;align=left;verticalAlign=middle;spacingTop=-1;spacingLeft=3;spacingRight=3;rotatable=0;labelPosition=right;points=[];portConstraint=eastwest;" vertex="1" parent="m38UlR-mXTsxk8naxuhB-82">
          <mxGeometry y="26" width="175" height="8" as="geometry" />
        </mxCell>
        <mxCell id="m38UlR-mXTsxk8naxuhB-84" value="&lt;div&gt;&amp;nbsp; &amp;nbsp; float force&lt;/div&gt;&lt;div&gt;&amp;nbsp; &amp;nbsp; float rotationSmooth&lt;/div&gt;&lt;div&gt;&amp;nbsp; &amp;nbsp; Quaternion forwardRotation&lt;/div&gt;&lt;div&gt;&amp;nbsp; &amp;nbsp; Quaternion downRotation&lt;/div&gt;&lt;div&gt;&amp;nbsp; &amp;nbsp; bool clockRotation&lt;/div&gt;" style="text;html=1;align=left;verticalAlign=middle;resizable=0;points=[];autosize=1;strokeColor=none;fillColor=none;" vertex="1" parent="m38UlR-mXTsxk8naxuhB-82">
          <mxGeometry y="34" width="175" height="80" as="geometry" />
        </mxCell>
        <mxCell id="m38UlR-mXTsxk8naxuhB-90" value="ENTITY" style="text;html=1;strokeColor=none;fillColor=none;align=center;verticalAlign=middle;whiteSpace=wrap;rounded=0;" vertex="1" parent="WIyWlLk6GJQsqaUBKTNV-1">
          <mxGeometry x="1460" y="349" width="40" height="20" as="geometry" />
        </mxCell>
        <mxCell id="m38UlR-mXTsxk8naxuhB-96" style="edgeStyle=orthogonalEdgeStyle;rounded=0;orthogonalLoop=1;jettySize=auto;html=1;entryX=0.5;entryY=0;entryDx=0;entryDy=0;" edge="1" parent="WIyWlLk6GJQsqaUBKTNV-1" source="m38UlR-mXTsxk8naxuhB-91" target="m38UlR-mXTsxk8naxuhB-94">
          <mxGeometry relative="1" as="geometry" />
        </mxCell>
        <mxCell id="m38UlR-mXTsxk8naxuhB-91" value="IColliderIntersection" style="swimlane;fontStyle=0;align=center;verticalAlign=top;childLayout=stackLayout;horizontal=1;startSize=26;horizontalStack=0;resizeParent=1;resizeLast=0;collapsible=1;marginBottom=0;rounded=0;shadow=0;strokeWidth=1;" vertex="1" parent="WIyWlLk6GJQsqaUBKTNV-1">
          <mxGeometry x="864" y="784" width="165" height="70" as="geometry">
            <mxRectangle x="340" y="380" width="170" height="26" as="alternateBounds" />
          </mxGeometry>
        </mxCell>
        <mxCell id="m38UlR-mXTsxk8naxuhB-92" value="" style="line;html=1;strokeWidth=1;align=left;verticalAlign=middle;spacingTop=-1;spacingLeft=3;spacingRight=3;rotatable=0;labelPosition=right;points=[];portConstraint=eastwest;" vertex="1" parent="m38UlR-mXTsxk8naxuhB-91">
          <mxGeometry y="26" width="165" height="8" as="geometry" />
        </mxCell>
        <mxCell id="m38UlR-mXTsxk8naxuhB-93" value="&lt;div&gt;&amp;nbsp; &amp;nbsp; void Trigger(IEntity);&lt;/div&gt;&lt;div&gt;&amp;nbsp; &amp;nbsp; void Collide(IEntity);&lt;/div&gt;" style="text;html=1;align=center;verticalAlign=middle;resizable=0;points=[];autosize=1;strokeColor=none;fillColor=none;" vertex="1" parent="m38UlR-mXTsxk8naxuhB-91">
          <mxGeometry y="34" width="165" height="30" as="geometry" />
        </mxCell>
        <mxCell id="m38UlR-mXTsxk8naxuhB-106" style="edgeStyle=orthogonalEdgeStyle;rounded=0;orthogonalLoop=1;jettySize=auto;html=1;entryX=0.5;entryY=0;entryDx=0;entryDy=0;" edge="1" parent="WIyWlLk6GJQsqaUBKTNV-1" source="m38UlR-mXTsxk8naxuhB-94" target="m38UlR-mXTsxk8naxuhB-97">
          <mxGeometry relative="1" as="geometry" />
        </mxCell>
        <mxCell id="m38UlR-mXTsxk8naxuhB-107" style="edgeStyle=orthogonalEdgeStyle;rounded=0;orthogonalLoop=1;jettySize=auto;html=1;entryX=0.5;entryY=0;entryDx=0;entryDy=0;" edge="1" parent="WIyWlLk6GJQsqaUBKTNV-1" source="m38UlR-mXTsxk8naxuhB-94" target="m38UlR-mXTsxk8naxuhB-99">
          <mxGeometry relative="1" as="geometry" />
        </mxCell>
        <mxCell id="m38UlR-mXTsxk8naxuhB-108" style="edgeStyle=orthogonalEdgeStyle;rounded=0;orthogonalLoop=1;jettySize=auto;html=1;entryX=0.5;entryY=0;entryDx=0;entryDy=0;" edge="1" parent="WIyWlLk6GJQsqaUBKTNV-1" source="m38UlR-mXTsxk8naxuhB-94" target="m38UlR-mXTsxk8naxuhB-101">
          <mxGeometry relative="1" as="geometry" />
        </mxCell>
        <mxCell id="m38UlR-mXTsxk8naxuhB-110" style="edgeStyle=orthogonalEdgeStyle;rounded=0;orthogonalLoop=1;jettySize=auto;html=1;" edge="1" parent="WIyWlLk6GJQsqaUBKTNV-1" source="m38UlR-mXTsxk8naxuhB-94" target="m38UlR-mXTsxk8naxuhB-104">
          <mxGeometry relative="1" as="geometry">
            <Array as="points">
              <mxPoint x="944" y="994" />
              <mxPoint x="1124" y="994" />
            </Array>
          </mxGeometry>
        </mxCell>
        <mxCell id="m38UlR-mXTsxk8naxuhB-94" value="ColliderObject" style="swimlane;fontStyle=0;align=center;verticalAlign=top;childLayout=stackLayout;horizontal=1;startSize=26;horizontalStack=0;resizeParent=1;resizeLast=0;collapsible=1;marginBottom=0;rounded=0;shadow=0;strokeWidth=1;" vertex="1" parent="WIyWlLk6GJQsqaUBKTNV-1">
          <mxGeometry x="864" y="904" width="160" height="70" as="geometry">
            <mxRectangle x="340" y="380" width="170" height="26" as="alternateBounds" />
          </mxGeometry>
        </mxCell>
        <mxCell id="m38UlR-mXTsxk8naxuhB-95" value="" style="line;html=1;strokeWidth=1;align=left;verticalAlign=middle;spacingTop=-1;spacingLeft=3;spacingRight=3;rotatable=0;labelPosition=right;points=[];portConstraint=eastwest;" vertex="1" parent="m38UlR-mXTsxk8naxuhB-94">
          <mxGeometry y="26" width="160" height="8" as="geometry" />
        </mxCell>
        <mxCell id="m38UlR-mXTsxk8naxuhB-97" value="PipeCollider" style="swimlane;fontStyle=0;align=center;verticalAlign=top;childLayout=stackLayout;horizontal=1;startSize=26;horizontalStack=0;resizeParent=1;resizeLast=0;collapsible=1;marginBottom=0;rounded=0;shadow=0;strokeWidth=1;" vertex="1" parent="WIyWlLk6GJQsqaUBKTNV-1">
          <mxGeometry x="749" y="1019" width="115" height="55" as="geometry">
            <mxRectangle x="340" y="380" width="170" height="26" as="alternateBounds" />
          </mxGeometry>
        </mxCell>
        <mxCell id="m38UlR-mXTsxk8naxuhB-98" value="" style="line;html=1;strokeWidth=1;align=left;verticalAlign=middle;spacingTop=-1;spacingLeft=3;spacingRight=3;rotatable=0;labelPosition=right;points=[];portConstraint=eastwest;" vertex="1" parent="m38UlR-mXTsxk8naxuhB-97">
          <mxGeometry y="26" width="115" height="8" as="geometry" />
        </mxCell>
        <mxCell id="m38UlR-mXTsxk8naxuhB-99" value="ScoreCollider" style="swimlane;fontStyle=0;align=center;verticalAlign=top;childLayout=stackLayout;horizontal=1;startSize=26;horizontalStack=0;resizeParent=1;resizeLast=0;collapsible=1;marginBottom=0;rounded=0;shadow=0;strokeWidth=1;" vertex="1" parent="WIyWlLk6GJQsqaUBKTNV-1">
          <mxGeometry x="864" y="1019" width="115" height="55" as="geometry">
            <mxRectangle x="340" y="380" width="170" height="26" as="alternateBounds" />
          </mxGeometry>
        </mxCell>
        <mxCell id="m38UlR-mXTsxk8naxuhB-100" value="" style="line;html=1;strokeWidth=1;align=left;verticalAlign=middle;spacingTop=-1;spacingLeft=3;spacingRight=3;rotatable=0;labelPosition=right;points=[];portConstraint=eastwest;" vertex="1" parent="m38UlR-mXTsxk8naxuhB-99">
          <mxGeometry y="26" width="115" height="8" as="geometry" />
        </mxCell>
        <mxCell id="m38UlR-mXTsxk8naxuhB-101" value="SkyCollider" style="swimlane;fontStyle=0;align=center;verticalAlign=top;childLayout=stackLayout;horizontal=1;startSize=26;horizontalStack=0;resizeParent=1;resizeLast=0;collapsible=1;marginBottom=0;rounded=0;shadow=0;strokeWidth=1;" vertex="1" parent="WIyWlLk6GJQsqaUBKTNV-1">
          <mxGeometry x="979" y="1019" width="90" height="55" as="geometry">
            <mxRectangle x="340" y="380" width="170" height="26" as="alternateBounds" />
          </mxGeometry>
        </mxCell>
        <mxCell id="m38UlR-mXTsxk8naxuhB-102" value="" style="line;html=1;strokeWidth=1;align=left;verticalAlign=middle;spacingTop=-1;spacingLeft=3;spacingRight=3;rotatable=0;labelPosition=right;points=[];portConstraint=eastwest;" vertex="1" parent="m38UlR-mXTsxk8naxuhB-101">
          <mxGeometry y="26" width="90" height="8" as="geometry" />
        </mxCell>
        <mxCell id="m38UlR-mXTsxk8naxuhB-104" value="GroundCollider" style="swimlane;fontStyle=0;align=center;verticalAlign=top;childLayout=stackLayout;horizontal=1;startSize=26;horizontalStack=0;resizeParent=1;resizeLast=0;collapsible=1;marginBottom=0;rounded=0;shadow=0;strokeWidth=1;" vertex="1" parent="WIyWlLk6GJQsqaUBKTNV-1">
          <mxGeometry x="1069" y="1019" width="110" height="55" as="geometry">
            <mxRectangle x="340" y="380" width="170" height="26" as="alternateBounds" />
          </mxGeometry>
        </mxCell>
        <mxCell id="m38UlR-mXTsxk8naxuhB-105" value="" style="line;html=1;strokeWidth=1;align=left;verticalAlign=middle;spacingTop=-1;spacingLeft=3;spacingRight=3;rotatable=0;labelPosition=right;points=[];portConstraint=eastwest;" vertex="1" parent="m38UlR-mXTsxk8naxuhB-104">
          <mxGeometry y="26" width="110" height="8" as="geometry" />
        </mxCell>
        <mxCell id="m38UlR-mXTsxk8naxuhB-112" value="COLLIDER" style="text;html=1;strokeColor=none;fillColor=none;align=center;verticalAlign=middle;whiteSpace=wrap;rounded=0;" vertex="1" parent="WIyWlLk6GJQsqaUBKTNV-1">
          <mxGeometry x="1105" y="784" width="62" height="20" as="geometry" />
        </mxCell>
        <mxCell id="m38UlR-mXTsxk8naxuhB-118" style="edgeStyle=orthogonalEdgeStyle;rounded=0;orthogonalLoop=1;jettySize=auto;html=1;entryX=0.5;entryY=0;entryDx=0;entryDy=0;" edge="1" parent="WIyWlLk6GJQsqaUBKTNV-1" source="m38UlR-mXTsxk8naxuhB-113" target="m38UlR-mXTsxk8naxuhB-116">
          <mxGeometry relative="1" as="geometry" />
        </mxCell>
        <mxCell id="m38UlR-mXTsxk8naxuhB-113" value="ISpawner" style="swimlane;fontStyle=0;align=center;verticalAlign=top;childLayout=stackLayout;horizontal=1;startSize=26;horizontalStack=0;resizeParent=1;resizeLast=0;collapsible=1;marginBottom=0;rounded=0;shadow=0;strokeWidth=1;" vertex="1" parent="WIyWlLk6GJQsqaUBKTNV-1">
          <mxGeometry x="320" y="780" width="175" height="124" as="geometry">
            <mxRectangle x="340" y="380" width="170" height="26" as="alternateBounds" />
          </mxGeometry>
        </mxCell>
        <mxCell id="m38UlR-mXTsxk8naxuhB-114" value="" style="line;html=1;strokeWidth=1;align=left;verticalAlign=middle;spacingTop=-1;spacingLeft=3;spacingRight=3;rotatable=0;labelPosition=right;points=[];portConstraint=eastwest;" vertex="1" parent="m38UlR-mXTsxk8naxuhB-113">
          <mxGeometry y="26" width="175" height="8" as="geometry" />
        </mxCell>
        <mxCell id="m38UlR-mXTsxk8naxuhB-115" value="&lt;div&gt;&amp;nbsp; &amp;nbsp; bool IsSpawnProccess { get; }&lt;/div&gt;&lt;div&gt;&lt;br&gt;&lt;/div&gt;&lt;div&gt;&amp;nbsp; &amp;nbsp; void StartSpawn();&lt;/div&gt;&lt;div&gt;&amp;nbsp; &amp;nbsp; void Pause();&lt;/div&gt;&lt;div&gt;&amp;nbsp; &amp;nbsp; void Continue();&lt;/div&gt;&lt;div&gt;&amp;nbsp; &amp;nbsp; void StopSpawn();&lt;/div&gt;" style="text;html=1;align=center;verticalAlign=middle;resizable=0;points=[];autosize=1;strokeColor=none;fillColor=none;" vertex="1" parent="m38UlR-mXTsxk8naxuhB-113">
          <mxGeometry y="34" width="175" height="90" as="geometry" />
        </mxCell>
        <mxCell id="m38UlR-mXTsxk8naxuhB-116" value="BaseSpawner" style="swimlane;fontStyle=0;align=center;verticalAlign=top;childLayout=stackLayout;horizontal=1;startSize=26;horizontalStack=0;resizeParent=1;resizeLast=0;collapsible=1;marginBottom=0;rounded=0;shadow=0;strokeWidth=1;" vertex="1" parent="WIyWlLk6GJQsqaUBKTNV-1">
          <mxGeometry x="325" y="958" width="165" height="70" as="geometry">
            <mxRectangle x="340" y="380" width="170" height="26" as="alternateBounds" />
          </mxGeometry>
        </mxCell>
        <mxCell id="m38UlR-mXTsxk8naxuhB-117" value="" style="line;html=1;strokeWidth=1;align=left;verticalAlign=middle;spacingTop=-1;spacingLeft=3;spacingRight=3;rotatable=0;labelPosition=right;points=[];portConstraint=eastwest;" vertex="1" parent="m38UlR-mXTsxk8naxuhB-116">
          <mxGeometry y="26" width="165" height="8" as="geometry" />
        </mxCell>
        <mxCell id="m38UlR-mXTsxk8naxuhB-119" value="void Construct(BaseObstacle)" style="text;html=1;align=center;verticalAlign=middle;resizable=0;points=[];autosize=1;strokeColor=none;fillColor=none;" vertex="1" parent="m38UlR-mXTsxk8naxuhB-116">
          <mxGeometry y="34" width="165" height="20" as="geometry" />
        </mxCell>
        <mxCell id="m38UlR-mXTsxk8naxuhB-125" style="edgeStyle=orthogonalEdgeStyle;rounded=0;orthogonalLoop=1;jettySize=auto;html=1;entryX=0.5;entryY=0;entryDx=0;entryDy=0;" edge="1" parent="WIyWlLk6GJQsqaUBKTNV-1" source="m38UlR-mXTsxk8naxuhB-120" target="m38UlR-mXTsxk8naxuhB-123">
          <mxGeometry relative="1" as="geometry" />
        </mxCell>
        <mxCell id="m38UlR-mXTsxk8naxuhB-120" value="IObstacle" style="swimlane;fontStyle=0;align=center;verticalAlign=top;childLayout=stackLayout;horizontal=1;startSize=26;horizontalStack=0;resizeParent=1;resizeLast=0;collapsible=1;marginBottom=0;rounded=0;shadow=0;strokeWidth=1;" vertex="1" parent="WIyWlLk6GJQsqaUBKTNV-1">
          <mxGeometry x="508" y="780" width="192" height="164" as="geometry">
            <mxRectangle x="340" y="380" width="170" height="26" as="alternateBounds" />
          </mxGeometry>
        </mxCell>
        <mxCell id="m38UlR-mXTsxk8naxuhB-121" value="" style="line;html=1;strokeWidth=1;align=left;verticalAlign=middle;spacingTop=-1;spacingLeft=3;spacingRight=3;rotatable=0;labelPosition=right;points=[];portConstraint=eastwest;" vertex="1" parent="m38UlR-mXTsxk8naxuhB-120">
          <mxGeometry y="26" width="192" height="8" as="geometry" />
        </mxCell>
        <mxCell id="m38UlR-mXTsxk8naxuhB-122" value="&lt;div&gt;&amp;nbsp; &amp;nbsp; bool IsMovementProccess { get; }&lt;/div&gt;&lt;div&gt;&lt;br&gt;&lt;/div&gt;&lt;div&gt;&amp;nbsp; &amp;nbsp; void StartMove();&lt;/div&gt;&lt;div&gt;&amp;nbsp; &amp;nbsp; void Pause();&lt;/div&gt;&lt;div&gt;&amp;nbsp; &amp;nbsp; void Continue();&lt;/div&gt;&lt;div&gt;&amp;nbsp; &amp;nbsp; void StopMove();&lt;/div&gt;&lt;div&gt;&lt;br&gt;&lt;/div&gt;&lt;div&gt;&amp;nbsp; &amp;nbsp; void Enable();&lt;/div&gt;&lt;div&gt;&amp;nbsp; &amp;nbsp; void Disable();&lt;/div&gt;" style="text;html=1;align=center;verticalAlign=middle;resizable=0;points=[];autosize=1;strokeColor=none;fillColor=none;" vertex="1" parent="m38UlR-mXTsxk8naxuhB-120">
          <mxGeometry y="34" width="192" height="130" as="geometry" />
        </mxCell>
        <mxCell id="m38UlR-mXTsxk8naxuhB-123" value="BaseObstacle" style="swimlane;fontStyle=0;align=center;verticalAlign=top;childLayout=stackLayout;horizontal=1;startSize=26;horizontalStack=0;resizeParent=1;resizeLast=0;collapsible=1;marginBottom=0;rounded=0;shadow=0;strokeWidth=1;" vertex="1" parent="WIyWlLk6GJQsqaUBKTNV-1">
          <mxGeometry x="524" y="984" width="160" height="70" as="geometry">
            <mxRectangle x="340" y="380" width="170" height="26" as="alternateBounds" />
          </mxGeometry>
        </mxCell>
        <mxCell id="m38UlR-mXTsxk8naxuhB-124" value="" style="line;html=1;strokeWidth=1;align=left;verticalAlign=middle;spacingTop=-1;spacingLeft=3;spacingRight=3;rotatable=0;labelPosition=right;points=[];portConstraint=eastwest;" vertex="1" parent="m38UlR-mXTsxk8naxuhB-123">
          <mxGeometry y="26" width="160" height="8" as="geometry" />
        </mxCell>
        <mxCell id="m38UlR-mXTsxk8naxuhB-126" value="ObjectPool" style="swimlane;fontStyle=0;align=center;verticalAlign=top;childLayout=stackLayout;horizontal=1;startSize=26;horizontalStack=0;resizeParent=1;resizeLast=0;collapsible=1;marginBottom=0;rounded=0;shadow=0;strokeWidth=1;" vertex="1" parent="WIyWlLk6GJQsqaUBKTNV-1">
          <mxGeometry x="-10" y="780" width="320" height="94" as="geometry">
            <mxRectangle x="340" y="380" width="170" height="26" as="alternateBounds" />
          </mxGeometry>
        </mxCell>
        <mxCell id="m38UlR-mXTsxk8naxuhB-127" value="" style="line;html=1;strokeWidth=1;align=left;verticalAlign=middle;spacingTop=-1;spacingLeft=3;spacingRight=3;rotatable=0;labelPosition=right;points=[];portConstraint=eastwest;" vertex="1" parent="m38UlR-mXTsxk8naxuhB-126">
          <mxGeometry y="26" width="320" height="8" as="geometry" />
        </mxCell>
        <mxCell id="m38UlR-mXTsxk8naxuhB-128" value="static GameObject GetObject(GameObject, bool isEnabled)" style="text;html=1;align=center;verticalAlign=middle;resizable=0;points=[];autosize=1;strokeColor=none;fillColor=none;" vertex="1" parent="m38UlR-mXTsxk8naxuhB-126">
          <mxGeometry y="34" width="320" height="20" as="geometry" />
        </mxCell>
        <mxCell id="m38UlR-mXTsxk8naxuhB-129" value="static void ReturnGameObject(GameObject)" style="text;html=1;align=center;verticalAlign=middle;resizable=0;points=[];autosize=1;strokeColor=none;fillColor=none;" vertex="1" parent="m38UlR-mXTsxk8naxuhB-126">
          <mxGeometry y="54" width="320" height="20" as="geometry" />
        </mxCell>
        <mxCell id="m38UlR-mXTsxk8naxuhB-130" value="static void Clear()" style="text;html=1;align=center;verticalAlign=middle;resizable=0;points=[];autosize=1;strokeColor=none;fillColor=none;" vertex="1" parent="m38UlR-mXTsxk8naxuhB-126">
          <mxGeometry y="74" width="320" height="20" as="geometry" />
        </mxCell>
        <mxCell id="m38UlR-mXTsxk8naxuhB-132" value="SPAWN" style="text;html=1;strokeColor=none;fillColor=none;align=center;verticalAlign=middle;whiteSpace=wrap;rounded=0;" vertex="1" parent="WIyWlLk6GJQsqaUBKTNV-1">
          <mxGeometry x="10" y="1034" width="40" height="20" as="geometry" />
        </mxCell>
        <mxCell id="m38UlR-mXTsxk8naxuhB-133" value="AudioManager" style="swimlane;fontStyle=0;align=center;verticalAlign=top;childLayout=stackLayout;horizontal=1;startSize=26;horizontalStack=0;resizeParent=1;resizeLast=0;collapsible=1;marginBottom=0;rounded=0;shadow=0;strokeWidth=1;" vertex="1" parent="WIyWlLk6GJQsqaUBKTNV-1">
          <mxGeometry x="450" y="465" width="202.5" height="110" as="geometry">
            <mxRectangle x="340" y="380" width="170" height="26" as="alternateBounds" />
          </mxGeometry>
        </mxCell>
        <mxCell id="m38UlR-mXTsxk8naxuhB-134" value="" style="line;html=1;strokeWidth=1;align=left;verticalAlign=middle;spacingTop=-1;spacingLeft=3;spacingRight=3;rotatable=0;labelPosition=right;points=[];portConstraint=eastwest;" vertex="1" parent="m38UlR-mXTsxk8naxuhB-133">
          <mxGeometry y="26" width="202.5" height="8" as="geometry" />
        </mxCell>
        <mxCell id="m38UlR-mXTsxk8naxuhB-135" value="static AudioManager Instance" style="text;html=1;align=center;verticalAlign=middle;resizable=0;points=[];autosize=1;strokeColor=none;fillColor=none;" vertex="1" parent="m38UlR-mXTsxk8naxuhB-133">
          <mxGeometry y="34" width="202.5" height="20" as="geometry" />
        </mxCell>
        <mxCell id="m38UlR-mXTsxk8naxuhB-136" value="void Ready()" style="text;html=1;align=center;verticalAlign=middle;resizable=0;points=[];autosize=1;strokeColor=none;fillColor=none;" vertex="1" parent="m38UlR-mXTsxk8naxuhB-133">
          <mxGeometry y="54" width="202.5" height="20" as="geometry" />
        </mxCell>
        <mxCell id="m38UlR-mXTsxk8naxuhB-137" value="void PlaySound(string)" style="text;html=1;align=center;verticalAlign=middle;resizable=0;points=[];autosize=1;strokeColor=none;fillColor=none;" vertex="1" parent="m38UlR-mXTsxk8naxuhB-133">
          <mxGeometry y="74" width="202.5" height="20" as="geometry" />
        </mxCell>
        <mxCell id="m38UlR-mXTsxk8naxuhB-138" value="DataManager" style="swimlane;fontStyle=0;align=center;verticalAlign=top;childLayout=stackLayout;horizontal=1;startSize=26;horizontalStack=0;resizeParent=1;resizeLast=0;collapsible=1;marginBottom=0;rounded=0;shadow=0;strokeWidth=1;" vertex="1" parent="WIyWlLk6GJQsqaUBKTNV-1">
          <mxGeometry x="-81.5" y="394" width="190" height="214" as="geometry">
            <mxRectangle x="340" y="380" width="170" height="26" as="alternateBounds" />
          </mxGeometry>
        </mxCell>
        <mxCell id="m38UlR-mXTsxk8naxuhB-139" value="" style="line;html=1;strokeWidth=1;align=left;verticalAlign=middle;spacingTop=-1;spacingLeft=3;spacingRight=3;rotatable=0;labelPosition=right;points=[];portConstraint=eastwest;" vertex="1" parent="m38UlR-mXTsxk8naxuhB-138">
          <mxGeometry y="26" width="190" height="8" as="geometry" />
        </mxCell>
        <mxCell id="m38UlR-mXTsxk8naxuhB-140" value="static Data Data {get;}" style="text;html=1;align=left;verticalAlign=middle;resizable=0;points=[];autosize=1;strokeColor=none;fillColor=none;" vertex="1" parent="m38UlR-mXTsxk8naxuhB-138">
          <mxGeometry y="34" width="190" height="20" as="geometry" />
        </mxCell>
        <mxCell id="m38UlR-mXTsxk8naxuhB-150" value="static int ScoreBest {get;set}" style="text;html=1;align=left;verticalAlign=middle;resizable=0;points=[];autosize=1;strokeColor=none;fillColor=none;" vertex="1" parent="m38UlR-mXTsxk8naxuhB-138">
          <mxGeometry y="54" width="190" height="20" as="geometry" />
        </mxCell>
        <mxCell id="m38UlR-mXTsxk8naxuhB-151" value="static SettingsData Settings {get;}" style="text;html=1;align=left;verticalAlign=middle;resizable=0;points=[];autosize=1;strokeColor=none;fillColor=none;" vertex="1" parent="m38UlR-mXTsxk8naxuhB-138">
          <mxGeometry y="74" width="190" height="20" as="geometry" />
        </mxCell>
        <mxCell id="m38UlR-mXTsxk8naxuhB-152" value="static bool IsMusic {get;set}" style="text;html=1;align=left;verticalAlign=middle;resizable=0;points=[];autosize=1;strokeColor=none;fillColor=none;" vertex="1" parent="m38UlR-mXTsxk8naxuhB-138">
          <mxGeometry y="94" width="190" height="20" as="geometry" />
        </mxCell>
        <mxCell id="m38UlR-mXTsxk8naxuhB-153" value="static bool IsSound {get;set}" style="text;html=1;align=left;verticalAlign=middle;resizable=0;points=[];autosize=1;strokeColor=none;fillColor=none;" vertex="1" parent="m38UlR-mXTsxk8naxuhB-138">
          <mxGeometry y="114" width="190" height="20" as="geometry" />
        </mxCell>
        <mxCell id="m38UlR-mXTsxk8naxuhB-154" value="static bool IsVibration {get;set}" style="text;html=1;align=left;verticalAlign=middle;resizable=0;points=[];autosize=1;strokeColor=none;fillColor=none;" vertex="1" parent="m38UlR-mXTsxk8naxuhB-138">
          <mxGeometry y="134" width="190" height="20" as="geometry" />
        </mxCell>
        <mxCell id="m38UlR-mXTsxk8naxuhB-141" value="Data" style="swimlane;fontStyle=0;align=center;verticalAlign=top;childLayout=stackLayout;horizontal=1;startSize=26;horizontalStack=0;resizeParent=1;resizeLast=0;collapsible=1;marginBottom=0;rounded=0;shadow=0;strokeWidth=1;" vertex="1" parent="WIyWlLk6GJQsqaUBKTNV-1">
          <mxGeometry x="-80" y="610" width="130" height="70" as="geometry">
            <mxRectangle x="340" y="380" width="170" height="26" as="alternateBounds" />
          </mxGeometry>
        </mxCell>
        <mxCell id="m38UlR-mXTsxk8naxuhB-142" value="" style="line;html=1;strokeWidth=1;align=left;verticalAlign=middle;spacingTop=-1;spacingLeft=3;spacingRight=3;rotatable=0;labelPosition=right;points=[];portConstraint=eastwest;" vertex="1" parent="m38UlR-mXTsxk8naxuhB-141">
          <mxGeometry y="26" width="130" height="8" as="geometry" />
        </mxCell>
        <mxCell id="m38UlR-mXTsxk8naxuhB-143" value="&lt;div&gt;StatisticsData statistics;&lt;/div&gt;&lt;div&gt;SettingsData settings;&lt;/div&gt;" style="text;html=1;align=left;verticalAlign=middle;resizable=0;points=[];autosize=1;strokeColor=none;fillColor=none;" vertex="1" parent="m38UlR-mXTsxk8naxuhB-141">
          <mxGeometry y="34" width="130" height="30" as="geometry" />
        </mxCell>
        <mxCell id="m38UlR-mXTsxk8naxuhB-144" value="StatisticsData" style="swimlane;fontStyle=0;align=center;verticalAlign=top;childLayout=stackLayout;horizontal=1;startSize=26;horizontalStack=0;resizeParent=1;resizeLast=0;collapsible=1;marginBottom=0;rounded=0;shadow=0;strokeWidth=1;" vertex="1" parent="WIyWlLk6GJQsqaUBKTNV-1">
          <mxGeometry x="48.5" y="610" width="110" height="70" as="geometry">
            <mxRectangle x="340" y="380" width="170" height="26" as="alternateBounds" />
          </mxGeometry>
        </mxCell>
        <mxCell id="m38UlR-mXTsxk8naxuhB-145" value="" style="line;html=1;strokeWidth=1;align=left;verticalAlign=middle;spacingTop=-1;spacingLeft=3;spacingRight=3;rotatable=0;labelPosition=right;points=[];portConstraint=eastwest;" vertex="1" parent="m38UlR-mXTsxk8naxuhB-144">
          <mxGeometry y="26" width="110" height="8" as="geometry" />
        </mxCell>
        <mxCell id="m38UlR-mXTsxk8naxuhB-146" value="int scoreBest;" style="text;html=1;align=left;verticalAlign=middle;resizable=0;points=[];autosize=1;strokeColor=none;fillColor=none;" vertex="1" parent="m38UlR-mXTsxk8naxuhB-144">
          <mxGeometry y="34" width="110" height="20" as="geometry" />
        </mxCell>
        <mxCell id="m38UlR-mXTsxk8naxuhB-147" value="SettingsData" style="swimlane;fontStyle=0;align=center;verticalAlign=top;childLayout=stackLayout;horizontal=1;startSize=26;horizontalStack=0;resizeParent=1;resizeLast=0;collapsible=1;marginBottom=0;rounded=0;shadow=0;strokeWidth=1;" vertex="1" parent="WIyWlLk6GJQsqaUBKTNV-1">
          <mxGeometry x="47.5" y="680" width="110" height="84" as="geometry">
            <mxRectangle x="340" y="380" width="170" height="26" as="alternateBounds" />
          </mxGeometry>
        </mxCell>
        <mxCell id="m38UlR-mXTsxk8naxuhB-149" value="&lt;div&gt;bool music;&lt;/div&gt;&lt;div&gt;bool sound;&lt;/div&gt;&lt;div&gt;bool vibration;&lt;/div&gt;" style="text;html=1;align=left;verticalAlign=middle;resizable=0;points=[];autosize=1;strokeColor=none;fillColor=none;" vertex="1" parent="m38UlR-mXTsxk8naxuhB-147">
          <mxGeometry y="26" width="110" height="50" as="geometry" />
        </mxCell>
        <mxCell id="m38UlR-mXTsxk8naxuhB-148" value="" style="line;html=1;strokeWidth=1;align=left;verticalAlign=middle;spacingTop=-1;spacingLeft=3;spacingRight=3;rotatable=0;labelPosition=right;points=[];portConstraint=eastwest;" vertex="1" parent="m38UlR-mXTsxk8naxuhB-147">
          <mxGeometry y="76" width="110" height="8" as="geometry" />
        </mxCell>
        <mxCell id="m38UlR-mXTsxk8naxuhB-157" value="DATA" style="text;html=1;strokeColor=none;fillColor=none;align=center;verticalAlign=middle;whiteSpace=wrap;rounded=0;" vertex="1" parent="WIyWlLk6GJQsqaUBKTNV-1">
          <mxGeometry x="117.5" y="394" width="40" height="20" as="geometry" />
        </mxCell>
        <mxCell id="m38UlR-mXTsxk8naxuhB-158" value="ScenesManager" style="swimlane;fontStyle=0;align=center;verticalAlign=top;childLayout=stackLayout;horizontal=1;startSize=26;horizontalStack=0;resizeParent=1;resizeLast=0;collapsible=1;marginBottom=0;rounded=0;shadow=0;strokeWidth=1;" vertex="1" parent="WIyWlLk6GJQsqaUBKTNV-1">
          <mxGeometry x="455" y="375" width="190" height="80" as="geometry">
            <mxRectangle x="340" y="380" width="170" height="26" as="alternateBounds" />
          </mxGeometry>
        </mxCell>
        <mxCell id="m38UlR-mXTsxk8naxuhB-159" value="" style="line;html=1;strokeWidth=1;align=left;verticalAlign=middle;spacingTop=-1;spacingLeft=3;spacingRight=3;rotatable=0;labelPosition=right;points=[];portConstraint=eastwest;" vertex="1" parent="m38UlR-mXTsxk8naxuhB-158">
          <mxGeometry y="26" width="190" height="8" as="geometry" />
        </mxCell>
        <mxCell id="m38UlR-mXTsxk8naxuhB-160" value="static ScenesManager Instance" style="text;html=1;align=center;verticalAlign=middle;resizable=0;points=[];autosize=1;strokeColor=none;fillColor=none;" vertex="1" parent="m38UlR-mXTsxk8naxuhB-158">
          <mxGeometry y="34" width="190" height="20" as="geometry" />
        </mxCell>
        <mxCell id="m38UlR-mXTsxk8naxuhB-161" value="void ReloadCurrentScene()" style="text;html=1;align=center;verticalAlign=middle;resizable=0;points=[];autosize=1;strokeColor=none;fillColor=none;" vertex="1" parent="m38UlR-mXTsxk8naxuhB-158">
          <mxGeometry y="54" width="190" height="20" as="geometry" />
        </mxCell>
      </root>
    </mxGraphModel>
  </diagram>
</mxfile>
